<svg xmlns="http://www.w3.org/2000/svg" xmlns:xlink="http://www.w3.org/1999/xlink" width="40" zoomAndPan="magnify" viewBox="0 0 30 30.000001" height="40" preserveAspectRatio="xMidYMid meet" version="1.0"><defs><g/><clipPath id="ae279c5f63"><path d="M 0.484375 0 L 29.515625 0 L 29.515625 28.695312 L 0.484375 28.695312 Z M 0.484375 0 " clip-rule="nonzero"/></clipPath><clipPath id="4c6f537521"><path d="M 2.226562 0 L 27.773438 0 C 28.234375 0 28.679688 0.183594 29.007812 0.511719 C 29.332031 0.835938 29.515625 1.28125 29.515625 1.742188 L 29.515625 26.953125 C 29.515625 27.414062 29.332031 27.859375 29.007812 28.183594 C 28.679688 28.511719 28.234375 28.695312 27.773438 28.695312 L 2.226562 28.695312 C 1.265625 28.695312 0.484375 27.914062 0.484375 26.953125 L 0.484375 1.742188 C 0.484375 0.78125 1.265625 0 2.226562 0 Z M 2.226562 0 " clip-rule="nonzero"/></clipPath></defs><g clip-path="url(#ae279c5f63)"><g clip-path="url(#4c6f537521)"><path fill="#6415ff" d="M 0.484375 0 L 29.515625 0 L 29.515625 28.695312 L 0.484375 28.695312 Z M 0.484375 0 " fill-opacity="1" fill-rule="nonzero"/></g></g><g fill="#ffffff" fill-opacity="1"><g transform="translate(5.995463, 17.419357)"><g><path d="M 0.578125 0 L 0.578125 -6.6875 L 3.21875 -6.6875 C 3.976562 -6.6875 4.566406 -6.488281 4.984375 -6.09375 C 5.410156 -5.695312 5.625 -5.164062 5.625 -4.5 C 5.625 -4.050781 5.519531 -3.660156 5.3125 -3.328125 C 5.113281 -3.003906 4.820312 -2.757812 4.4375 -2.59375 L 5.859375 0 L 4.296875 0 L 3.03125 -2.375 L 2 -2.375 L 2 0 Z M 2 -3.515625 L 2.953125 -3.515625 C 3.753906 -3.515625 4.15625 -3.84375 4.15625 -4.5 C 4.15625 -5.1875 3.753906 -5.53125 2.953125 -5.53125 L 2 -5.53125 Z M 2 -3.515625 "/></g></g></g><g fill="#ffffff" fill-opacity="1"><g transform="translate(12.038508, 17.419357)"><g><path d="M 0.546875 0 L 0.546875 -1.015625 L 2.921875 -3.21875 C 3.222656 -3.507812 3.453125 -3.765625 3.609375 -3.984375 C 3.773438 -4.203125 3.859375 -4.441406 3.859375 -4.703125 C 3.859375 -5.003906 3.757812 -5.238281 3.5625 -5.40625 C 3.375 -5.570312 3.128906 -5.65625 2.828125 -5.65625 C 2.523438 -5.65625 2.28125 -5.5625 2.09375 -5.375 C 1.90625 -5.195312 1.816406 -4.945312 1.828125 -4.625 L 0.484375 -4.625 C 0.484375 -5.0625 0.582031 -5.441406 0.78125 -5.765625 C 0.976562 -6.085938 1.253906 -6.335938 1.609375 -6.515625 C 1.960938 -6.691406 2.375 -6.78125 2.84375 -6.78125 C 3.320312 -6.78125 3.738281 -6.695312 4.09375 -6.53125 C 4.445312 -6.363281 4.722656 -6.128906 4.921875 -5.828125 C 5.117188 -5.535156 5.21875 -5.191406 5.21875 -4.796875 C 5.21875 -4.546875 5.164062 -4.296875 5.0625 -4.046875 C 4.96875 -3.804688 4.796875 -3.535156 4.546875 -3.234375 C 4.296875 -2.929688 3.941406 -2.570312 3.484375 -2.15625 L 2.5 -1.203125 L 2.5 -1.15625 L 5.3125 -1.15625 L 5.3125 0 Z M 0.546875 0 "/></g></g></g><g fill="#ffffff" fill-opacity="1"><g transform="translate(17.839567, 17.419357)"><g><path d="M 0.328125 -5.53125 L 0.328125 -6.6875 L 5.828125 -6.6875 L 5.828125 -5.53125 L 3.78125 -5.53125 L 3.78125 0 L 2.375 0 L 2.375 -5.53125 Z M 0.328125 -5.53125 "/></g></g></g></svg>